# xmcd CD database file
#
# Track frame offsets:
#	150
#	14281
#	30617
#	48760
#	62630
#	79626
#	93597
#	108831
#	119642
#	134348
#
# Disc length: 1958 seconds
#
# Revision: 0
# Processed by: cddbd v1.5.1PL0 Copyright (c) Steve Scherf et al.
# Submitted via: CDex 1.51
#
DISCID=7a07a40a
DTITLE=Various Artist - Fields Of Faith: A Country Gospel Collection
DYEAR=2001
DGENRE=Country
TTITLE0=Eddy Raven/Leaning On The Everlasting Arms
TTITLE1=Sandy Posey/What A Friend We Have In Jesus
TTITLE2=T. Graham Brown/The Old Rugged Cross
TTITLE3=Lee Greenwood/Amazing Grace
TTITLE4=Bill Anderson/Pass Me Not Oh Gentle Savior
TTITLE5=Deborah Allen/He's Got The Whole World In His Hands
TTITLE6=Mark Gray/Glad Reunion Day
TTITLE7=Ed Bruce/The Lord's Prayer
TTITLE8=T. Graham Brown/Rock Of Ages
TTITLE9=Patsy Cline/Just A Closer Walk With Thee
EXTD=YEAR: 2001
EXTT0=
EXTT1=
EXTT2=
EXTT3=
EXTT4=
EXTT5=
EXTT6=
EXTT7=
EXTT8=
EXTT9=
PLAYORDER=
